<svg xmlns="http://www.w3.org/2000/svg" width="808" height="237" viewBox="0 0 808 237">
  <defs>
    <linearGradient id="crew-a" x1="100%" x2="0%" y1="0%" y2="100%">
      <stop offset="0%" stop-color="#56B157"/>
      <stop offset="100%" stop-color="#2E7E2E"/>
    </linearGradient>
    <linearGradient id="crew-b" x1="100%" x2="0%" y1="0%" y2="100%">
      <stop offset="0%" stop-color="#CCD6CC"/>
      <stop offset="100%" stop-color="#56B157"/>
    </linearGradient>
    <linearGradient id="crew-c" x1="100%" x2="0%" y1="0%" y2="100%">
      <stop offset="0%" stop-color="#54A4F3"/>
      <stop offset="100%" stop-color="#D8D8D8"/>
    </linearGradient>
    <linearGradient id="crew-d" x1="100%" x2="0%" y1="0%" y2="100%">
      <stop offset="0%" stop-color="#175FC7"/>
      <stop offset="100%" stop-color="#54A4F3"/>
    </linearGradient>
  </defs>
  <g fill="none" fill-rule="evenodd" transform="translate(1)">
    <line x1="19.5" x2="280" y1="106.5" y2="107" stroke="#242B8D" stroke-linecap="square" stroke-width="2"/>
    <line x1="320" x2="591" y1="107" y2="108" stroke="#242B8D" stroke-linecap="square" stroke-width="2"/>
    <line x1="295" x2="315" y1="107" y2="107" stroke="#242B8D" stroke-linecap="square" stroke-width="2"/>
    <line x1="285" x2="290" y1="107" y2="107" stroke="#242B8D" stroke-linecap="square" stroke-width="2"/>
    <g transform="translate(109 31)">
      <circle cx="62.5" cy="62.5" r="62.5" fill="#2E7E2E"/>
      <path fill="#56B157" d="M80.5006214,2.63109247 C106.24373,10.3603453 125,34.2397918 125,62.5 C125,90.7602082 106.24373,114.639655 80.5006214,122.368908 C54.7567571,114.640275 36,90.760575 36,62.5 C36,34.5405845 54.3591235,10.8691721 79.6797629,2.88337031 Z"/>
    </g>
    <g transform="translate(612 38)">
      <circle cx="62.5" cy="62.5" r="62.5" fill="#175FC7"/>
      <path fill="#54A4F3" d="M80.5006214,2.63109247 C106.24373,10.3603453 125,34.2397918 125,62.5 C125,90.7602082 106.24373,114.639655 80.5006214,122.368908 C54.7567571,114.640275 36,90.760575 36,62.5 C36,34.5405845 54.3591235,10.8691721 79.6797629,2.88337031 Z"/>
    </g>
    <polygon fill="#FDA509" stroke="#E85607" points="642 191 642 140 672 140 625 87 582 140 608 140 608 191"/>
    <polygon fill="#FDA509" stroke="#E85607" points="238 191 238 140 268 140 221 87 178 140 204 140 204 191" transform="matrix(1 0 0 -1 0 278)"/>
    <rect width="126" height="38" x="680.5" y="50.5" fill="#FDA509" stroke="#E85607"/>
    <text fill="#F9F9F9" font-family="Lato-Heavy, Lato" font-size="27" font-weight="700">
      <tspan x="696" y="80">EFFECT</tspan>
    </text>
    <rect width="126" height="38" x="35.5" y="50.5" fill="#FDA509" stroke="#E85607"/>
    <text fill="#F9F9F9" font-family="Lato-Heavy, Lato" font-size="27" font-weight="700">
      <tspan x="44" y="80">SOURCE</tspan>
    </text>
    <rect width="191" height="61" x="334.5" y="175.5" fill="#FDA509" stroke="#E85607"/>
    <text fill="#F9F9F9" font-family="Lato-Heavy, Lato" font-size="22" font-weight="700">
      <tspan x="408.736" y="201">CUE</tspan> <tspan x="348.93" y="228">RE-WEIGHTING</tspan>
    </text>
    <line x1="10" x2="15" y1="106.5" y2="106.5" stroke="#242B8D" stroke-linecap="square" stroke-width="2"/>
    <line x2="5" y1="106.5" y2="106.5" stroke="#242B8D" stroke-linecap="square" stroke-width="2"/>
    <polyline stroke="#E85607" stroke-width="3" points="716 202 716 89 756 89" transform="rotate(180 736 145.5)"/>
    <polyline stroke="#E85607" stroke-width="3" points="58 202 58 89 98 89" transform="rotate(180 78 145.5)"/>
    <text fill="#364851" font-family="Lato-Heavy, Lato" font-size="36" font-weight="700">
      <tspan x="21" y="212">N</tspan>
    </text>
    <text fill="#364851" font-family="Lato-Heavy, Lato" font-size="36" font-weight="700">
      <tspan x="674" y="212">Ṽ</tspan>
    </text>
    <g transform="translate(344)">
      <circle cx="20" cy="140" r="20" fill="url(#crew-a)"/>
      <circle cx="60" cy="100" r="20" fill="url(#crew-b)"/>
      <circle cx="100" cy="60" r="20" fill="url(#crew-c)"/>
      <circle cx="140" cy="20" r="20" fill="url(#crew-d)"/>
    </g>
    <circle cx="63.5" cy="106.5" r="7.5" fill="#242B8D"/>
    <circle cx="304.5" cy="106.5" r="7.5" fill="#242B8D"/>
    <circle cx="576.5" cy="106.5" r="7.5" fill="#242B8D"/>
  </g>
</svg>
